<?xml version="1.0" encoding="UTF-8"?>
<svg id="Layer_2" data-name="Layer 2" xmlns="http://www.w3.org/2000/svg" xmlns:xlink="http://www.w3.org/1999/xlink" viewBox="0 0 758.72 358.43">
  <defs>
    <style>
      .cls-1 {
        fill: url(#linear-gradient);
      }

      .cls-1, .cls-2, .cls-3, .cls-4, .cls-5, .cls-6, .cls-7 {
        stroke-width: 0px;
      }

      .cls-2 {
        fill: url(#linear-gradient-6);
      }

      .cls-3 {
        fill: url(#linear-gradient-5);
      }

      .cls-4 {
        fill: url(#linear-gradient-2);
      }

      .cls-5 {
        fill: url(#linear-gradient-3);
      }

      .cls-6 {
        fill: #fff;
      }

      .cls-7 {
        fill: url(#linear-gradient-4);
      }
    </style>
    <linearGradient id="linear-gradient" x1="157.93" y1="320.62" x2="563.92" y2="320.62" gradientTransform="translate(0 360.43) scale(1 -1)" gradientUnits="userSpaceOnUse">
      <stop offset="0" stop-color="#f69453"/>
      <stop offset=".5" stop-color="#f37521"/>
      <stop offset="1" stop-color="#d4622a"/>
    </linearGradient>
    <linearGradient id="linear-gradient-2" x1="485.18" y1="41.95" x2="555.08" y2="41.95" xlink:href="#linear-gradient"/>
    <linearGradient id="linear-gradient-3" x1="558.1" y1="57.45" x2="614.5" y2="57.45" xlink:href="#linear-gradient"/>
    <linearGradient id="linear-gradient-4" x1="623.96" y1="58.9" x2="660.91" y2="58.9" xlink:href="#linear-gradient"/>
    <linearGradient id="linear-gradient-5" x1="667.18" y1="67.18" x2="700.55" y2="67.18" xlink:href="#linear-gradient"/>
    <linearGradient id="linear-gradient-6" x1="699.34" y1="58.86" x2="758.72" y2="58.86" xlink:href="#linear-gradient"/>
  </defs>
  <g id="Layer_1-2" data-name="Layer 1">
    <g id="Layer_2-2" data-name="Layer 2">
      <polygon class="cls-6" points="5.61 269.25 38.19 306.57 0 306.74 5.61 269.25"/>
    </g>
    <g id="Layer_7" data-name="Layer 7">
      <path class="cls-6" d="M191.83,188.67s31.53-25.23,26.28-58.34L147.15.52l-96.18.53L6.3,266.45l34.16,39.94,171.33,1.05,7.88-62.01s3.69-36.79-27.84-56.76ZM133.84,236.85H57.81l10.69-34.69,70.25.35s8.06,1.05,9.28,8.58c0,0,3.15,18.22-14.19,25.76ZM152.24,176.76h-76.03l10.69-34.69,70.25.35s8.06,1.05,9.28,8.58c0,.01,3.15,18.23-14.19,25.76Z"/>
    </g>
    <g id="Layer_3" data-name="Layer 3">
      <path class="cls-1" d="M157.93.79l405.99-.79s-76.47,70.95-250.69,76.47l-111.15,3.15L157.93.79Z"/>
    </g>
    <g id="Layer_4" data-name="Layer 4">
      <polygon class="cls-6" points="229.67 118.77 268.56 204.96 268.56 211.79 246.48 248.06 283.27 247.01 305.34 198.66 358.95 118.77 320.06 118.25 290.1 168.17 270.66 118.25 229.67 118.77"/>
    </g>
    <g id="Layer_5" data-name="Layer 5">
      <polygon class="cls-6" points="364.91 117.9 491.39 117.72 483.33 147.15 449.34 147.15 398.37 247.53 363.15 247.53 412.21 147.85 361.4 147.85 364.91 117.9"/>
      <polygon class="cls-6" points="502.95 118.25 501.9 146.36 615.42 147.15 625.4 117.2 502.95 118.25"/>
      <path class="cls-6" d="M517.93,162.66l-45.72,67.8s-6.04,15.5,3.15,21.55l125.08-.79,6.57-31.27-88.29.26,16.03-29.96,41.52,1.05,19.71-27.59-78.05-1.05Z"/>
    </g>
    <g id="Layer_6" data-name="Layer 6">
      <polygon class="cls-6" points="636.79 118.6 632.94 146.28 700.21 146.98 621.37 227.91 618.22 251.04 730.69 251.04 738.75 219.5 674.63 218.8 749.96 144.87 753.46 144.87 758.72 117.9 636.79 118.6"/>
    </g>
    <g id="Layer_8" data-name="Layer 8">
      <path class="cls-4" d="M551.4,278.54l-52.03,1.05-14.19,78.31,15.77.53,7.36-32.06,33.11.53s4.73,1.58,6.83-7.88,6.83-33.64,6.83-33.64l-3.68-6.84ZM536.16,315.85h-26.28l8.41-26.28,19.45.53-1.58,25.75Z"/>
      <path class="cls-5" d="M607.63,278.54l-43.09,1.05-.53,9.46h40.99l-3.15,7.36-17.34.53c-16.82-.53-23.65,7.36-23.65,7.36-9.46,14.72,8.41,22.07,8.41,22.07l39.42,1.05s5.26-34.16,5.78-40.99c.52-6.84-6.84-7.89-6.84-7.89ZM597.65,317.17l-23.65.26,2.1-11.82,22.34-.53-.79,12.09Z"/>
      <polygon class="cls-7" points="630.26 296.93 623.96 325.58 641.3 326.1 642.61 292.2 658.8 291.41 660.91 276.96 630.7 277.49 625.18 296.95 630.26 296.93"/>
      <path class="cls-3" d="M675.33,259.88l-2.63,15.5-3.68.26-1.84,12.09h4.99l-2.36,23.91s-2.36,11.3,8.67,14.72l13.93.26,3.94-15.77-12.09.53,2.36-22.6,9.2-.26,4.73-12.61s.18-1.31-2.89-1.58l-6.92.09v-14.54h-15.41Z"/>
      <path class="cls-2" d="M758.72,277.31h-37.66s-10.34-.88-13.66,9.46l-1.4,17.34,33.28.18v9.64l-37.66.35-2.28,11.56,42.57-.18s10.69-2.45,12.44-11.91l.53-10.69s-2.28-5.26-8.41-5.26l-24.7.18.88-9.11h28.73v2.1s5.43.53,6.66-1.93l.68-11.73Z"/>
    </g>
  </g>
</svg>